<svg width="105" height="100" viewBox="0 0 105 100" fill="none" xmlns="http://www.w3.org/2000/svg">
<path fill-rule="evenodd" clip-rule="evenodd" d="M15.0271 88.9999C22.5985 76.0318 36.6633 67.3186 52.7632 67.3186C68.6212 67.3186 82.5048 75.7719 90.1537 88.4181C99.1143 79.0295 104.617 66.3115 104.617 52.3084C104.617 23.4193 81.1975 0 52.3084 0C23.4193 0 0 23.4193 0 52.3084C0 66.603 5.73385 79.5583 15.0271 88.9999ZM73.6866 38.6627C73.6866 50.4696 64.1152 60.0409 52.3084 60.0409C40.5015 60.0409 30.9302 50.4696 30.9302 38.6627C30.9302 26.8559 40.5015 17.2845 52.3084 17.2845C64.1152 17.2845 73.6866 26.8559 73.6866 38.6627Z" fill="#F9862C"/>
<circle cx="87.5" cy="86.5" r="11.5" fill="#CC5900"/>
<path d="M88.0573 85.88H91.8373V88.02H88.0573V91.78H85.9173V88.02H82.1373V85.88H85.9173V82.08H88.0573V85.88Z" fill="white"/>
</svg>
