<svg width="104" height="104" viewBox="0 0 104 104" fill="none" xmlns="http://www.w3.org/2000/svg">
<circle cx="52" cy="52" r="52" fill="#F9862C"/>
<path d="M53.1493 49.2611C46.4597 47.5239 44.3084 45.7278 44.3084 42.9306C44.3084 39.7211 47.2849 37.4833 52.2652 37.4833C57.5108 37.4833 59.4558 39.9861 59.6326 43.6667H66.1454C65.9391 38.6022 62.8448 33.95 56.6857 32.4483V26H47.8448V32.36C42.1277 33.5967 37.5305 37.3067 37.5305 42.9894C37.5305 49.7911 43.1591 53.1772 51.3811 55.15C58.7485 56.9167 60.222 59.5078 60.222 62.2461C60.222 64.2778 58.778 67.5167 52.2652 67.5167C46.1945 67.5167 43.8075 64.8078 43.4833 61.3333H37C37.3536 67.7817 42.1866 71.4033 47.8448 72.6106V79H56.6857V72.6694C62.4322 71.58 67 68.2528 67 62.2167C67 53.8544 59.8389 50.9983 53.1493 49.2611Z" fill="white"/>
<circle cx="87.5" cy="86.5" r="11.5" fill="#CC5900"/>
<path d="M88.0573 85.88H91.8373V88.02H88.0573V91.78H85.9173V88.02H82.1373V85.88H85.9173V82.08H88.0573V85.88Z" fill="white"/>
</svg>
