<svg width="104" height="104" viewBox="0 0 104 104" fill="none" xmlns="http://www.w3.org/2000/svg">
<path d="M52 0C23.296 0 0 23.296 0 52C0 80.704 23.296 104 52 104C80.704 104 104 80.704 104 52C104 23.296 80.704 0 52 0ZM70.772 32.968C76.336 32.968 80.808 37.44 80.808 43.004C80.808 48.568 76.336 53.04 70.772 53.04C65.208 53.04 60.736 48.568 60.736 43.004C60.684 37.44 65.208 32.968 70.772 32.968ZM39.572 24.752C46.332 24.752 51.844 30.264 51.844 37.024C51.844 43.784 46.332 49.296 39.572 49.296C32.812 49.296 27.3 43.784 27.3 37.024C27.3 30.212 32.76 24.752 39.572 24.752ZM39.572 72.228V91.728C27.092 87.828 17.212 78.208 12.844 65.936C18.304 60.112 31.928 57.148 39.572 57.148C42.328 57.148 45.812 57.564 49.452 58.292C40.924 62.816 39.572 68.796 39.572 72.228ZM52 93.6C50.596 93.6 49.244 93.548 47.892 93.392V72.228C47.892 64.844 63.18 61.152 70.772 61.152C76.336 61.152 85.956 63.18 90.74 67.132C84.656 82.576 69.628 93.6 52 93.6Z" fill="#F9862C"/>
<circle cx="87.5" cy="86.5" r="11.5" fill="#CC5900"/>
<path d="M88.0573 85.88H91.8373V88.02H88.0573V91.78H85.9173V88.02H82.1373V85.88H85.9173V82.08H88.0573V85.88Z" fill="white"/>
</svg>
